<?xml version="1.0" standalone="no"?>
<!DOCTYPE svg PUBLIC "-//W3C//DTD SVG 20010904//EN"
 "http://www.w3.org/TR/2001/REC-SVG-20010904/DTD/svg10.dtd">
<svg version="1.0" xmlns="http://www.w3.org/2000/svg"
 width="746.000000pt" height="746.000000pt" viewBox="0 0 746.000000 746.000000"
 preserveAspectRatio="xMidYMid meet">
<metadata>
Created by potrace 1.14, written by Peter Selinger 2001-2017
</metadata>
<g transform="translate(0.000000,746.000000) scale(0.100000,-0.100000)"
fill="#000000" stroke="none">
<path d="M3659 7456 c-4 -4 -15 -8 -25 -10 -25 -5 -198 -82 -227 -100 -12 -8
-26 -16 -32 -17 -30 -4 -403 -214 -425 -238 -3 -4 -32 -24 -65 -45 -56 -36
-226 -162 -275 -203 -12 -10 -31 -26 -43 -36 -194 -163 -420 -397 -573 -593
-98 -127 -244 -337 -244 -353 0 -6 -4 -11 -8 -11 -5 0 -16 -15 -25 -32 -9 -18
-33 -60 -52 -93 -38 -65 -183 -354 -185 -370 -1 -5 -8 -21 -16 -35 -7 -14 -25
-56 -39 -95 -15 -38 -31 -81 -37 -95 -7 -14 -12 -28 -14 -32 -1 -5 -3 -10 -4
-13 -1 -3 -3 -8 -4 -12 -1 -5 -17 -53 -35 -108 -33 -99 -67 -216 -77 -265 -3
-14 -9 -41 -14 -60 -5 -19 -12 -51 -15 -70 -3 -19 -10 -53 -16 -75 -5 -22 -11
-53 -14 -70 -8 -61 -14 -101 -20 -137 -4 -20 -8 -54 -10 -75 -2 -21 -8 -72
-12 -113 -4 -41 -8 -192 -8 -335 0 -233 4 -332 20 -445 2 -19 7 -55 10 -80 7
-54 22 -146 30 -180 3 -14 7 -39 10 -57 2 -18 9 -49 14 -70 6 -21 13 -56 17
-78 3 -22 8 -43 10 -47 2 -3 15 -48 29 -100 36 -139 115 -373 166 -493 7 -16
13 -32 14 -35 10 -29 72 -165 120 -261 119 -240 304 -535 393 -631 50 -54 123
-103 167 -114 17 -4 35 -9 40 -13 35 -20 159 -18 368 6 34 3 77 7 94 7 18 1
33 5 33 9 0 5 3 6 8 3 6 -4 121 15 235 39 122 25 317 94 317 112 0 8 -21 33
-47 56 -66 60 -332 325 -368 367 -17 19 -46 55 -65 80 -34 45 -41 53 -69 86
-24 28 -99 140 -160 238 -146 233 -272 531 -343 811 -16 66 -32 131 -34 145
-2 14 -7 36 -10 50 -3 14 -8 39 -10 55 -2 17 -7 44 -10 60 -4 17 -8 46 -9 65
-2 19 -6 60 -9 90 -12 96 -16 171 -15 330 0 156 0 174 14 310 4 41 8 81 8 88
0 6 4 12 9 12 5 0 6 5 3 10 -7 11 36 234 59 310 7 25 14 48 14 53 1 4 13 45
28 92 14 46 25 87 24 91 -1 4 2 10 7 13 4 3 16 31 27 61 25 74 130 306 184
405 54 100 92 135 145 135 58 0 223 -45 312 -85 87 -39 185 -88 225 -111 189
-111 352 -262 515 -476 20 -27 37 -48 39 -48 2 0 14 10 28 23 13 12 50 45 82
72 32 28 77 68 101 90 41 38 164 149 209 188 12 10 54 49 95 85 74 67 95 85
141 126 51 44 54 52 28 88 -13 18 -30 40 -38 48 -8 8 -28 33 -45 55 -56 78
-291 302 -405 386 -174 130 -284 199 -470 292 -173 88 -162 73 -94 118 84 55
84 55 141 94 29 19 56 35 61 35 4 0 17 9 29 19 11 11 45 33 74 49 85 47 136
34 304 -76 250 -164 455 -339 644 -548 89 -99 95 -105 181 -219 87 -115 121
-151 155 -165 11 -4 76 -8 145 -8 120 -1 253 -8 295 -16 11 -2 40 -7 65 -12
25 -4 47 -8 50 -9 3 -1 19 -5 35 -9 17 -4 55 -15 85 -24 30 -9 57 -17 60 -17
66 -17 318 -137 369 -177 28 -22 42 -10 35 30 -6 33 -96 246 -106 250 -5 2 -8
9 -8 15 0 15 -121 258 -137 275 -7 7 -16 24 -19 38 -3 13 -10 24 -15 24 -5 0
-9 5 -9 11 0 6 -16 36 -37 67 -60 95 -167 256 -175 267 -18 22 -64 83 -83 109
-19 26 -29 39 -73 91 -9 11 -39 47 -67 80 -63 75 -272 287 -345 350 -30 26
-68 59 -85 74 -112 100 -420 314 -570 396 -38 21 -72 41 -75 44 -8 10 -270
137 -360 176 -64 28 -104 38 -160 42 -41 3 -78 2 -81 -1z"/>
<path d="M4950 4904 c-41 -7 -85 -15 -97 -18 -13 -3 -31 -8 -40 -10 -84 -21
-259 -102 -341 -158 -69 -47 -67 -46 -166 -143 -194 -191 -295 -407 -321 -685
-5 -57 -14 -174 -20 -265 -3 -38 -7 -81 -9 -95 -3 -14 -8 -42 -11 -62 -11 -84
-78 -313 -94 -328 -3 -3 -7 -12 -9 -20 -2 -8 -8 -16 -13 -18 -5 -2 -9 -10 -9
-18 0 -16 -81 -143 -92 -144 -17 0 -144 248 -154 303 -1 4 -3 9 -4 12 -1 3 -3
8 -4 13 -1 4 -4 12 -7 17 -9 15 -36 130 -45 195 -2 19 -6 45 -9 58 -2 12 -6
62 -10 110 -19 290 -23 318 -57 442 -31 113 -77 213 -151 325 -37 56 -239 265
-256 265 -4 0 -21 11 -37 25 -16 14 -41 31 -56 38 -16 6 -28 14 -28 18 0 12
-121 62 -129 53 -14 -15 -90 -229 -126 -354 -30 -103 -60 -239 -71 -320 -13
-101 -18 -157 -18 -242 -1 -54 -5 -98 -9 -98 -5 0 -5 -4 -2 -10 3 -5 8 -81 10
-167 2 -87 6 -168 9 -180 2 -12 7 -46 10 -75 4 -29 9 -64 11 -78 3 -14 7 -36
10 -50 4 -29 30 -148 44 -200 34 -134 110 -331 178 -465 26 -49 51 -100 57
-112 6 -13 14 -23 19 -23 4 0 7 -5 7 -11 0 -11 136 -219 149 -229 4 -3 20 -23
36 -45 17 -22 32 -42 35 -45 3 -3 20 -23 39 -45 54 -64 112 -124 198 -205 111
-105 137 -127 232 -200 125 -95 153 -91 336 59 440 358 723 780 845 1260 21
81 28 115 35 171 3 19 7 42 10 50 2 8 7 31 10 50 3 19 8 49 11 65 3 17 7 46 9
65 2 19 6 46 9 60 5 24 10 58 21 138 20 133 39 232 52 267 18 47 74 102 117
114 56 16 167 8 211 -15 42 -22 91 -82 101 -124 9 -36 3 -330 -6 -330 -3 0 -5
-12 -6 -27 -3 -84 -60 -387 -99 -528 -14 -49 -27 -97 -29 -105 -5 -17 -34 -98
-76 -210 -16 -41 -45 -111 -66 -155 -21 -44 -38 -82 -38 -85 -1 -3 -13 -26
-29 -52 -15 -26 -27 -49 -27 -52 0 -9 -75 -131 -82 -134 -5 -2 -8 -8 -8 -14 0
-6 -11 -26 -25 -44 -14 -18 -25 -35 -25 -38 0 -7 -100 -147 -110 -156 -3 -3
-13 -14 -21 -26 -73 -106 -324 -365 -447 -462 -19 -15 -40 -32 -46 -37 -77
-71 -414 -290 -474 -309 -12 -4 -22 -12 -22 -17 0 -5 -6 -9 -13 -9 -6 0 -50
-18 -96 -41 -133 -64 -461 -187 -461 -172 0 3 -7 0 -15 -7 -8 -7 -15 -10 -15
-6 0 3 -11 1 -25 -4 -14 -5 -36 -12 -48 -14 -12 -3 -65 -14 -117 -26 -52 -12
-104 -23 -115 -24 -21 -3 -97 -16 -130 -22 -11 -2 -40 -7 -65 -10 -61 -8 -68
-18 -34 -47 16 -14 39 -33 51 -43 11 -11 31 -26 43 -34 12 -8 34 -25 48 -38
15 -12 45 -35 67 -49 22 -15 56 -39 75 -54 20 -15 74 -51 120 -79 90 -56 108
-67 206 -122 109 -63 376 -188 400 -188 8 0 14 -4 14 -10 0 -5 3 -9 8 -8 4 1
24 -4 46 -11 45 -16 100 -9 162 19 23 11 46 20 49 20 3 0 33 14 67 30 33 17
66 30 73 30 7 0 15 3 17 8 2 4 36 22 76 41 39 19 72 38 72 41 0 4 6 7 13 7 6
0 47 21 90 46 43 26 81 47 83 47 3 0 17 9 32 19 15 10 61 41 102 67 129 82
350 247 425 316 11 10 40 37 65 59 122 111 292 286 360 370 19 24 45 54 58 67
12 13 22 26 22 29 0 4 10 18 23 32 29 32 157 208 157 216 0 3 9 15 20 27 11
12 26 34 32 50 7 15 16 28 20 28 5 0 8 4 8 9 0 6 13 29 29 53 26 40 47 75 109
188 104 187 261 551 287 665 1 6 5 17 8 25 3 8 18 60 32 115 26 96 29 110 40
156 2 11 6 28 9 37 5 16 14 59 22 107 1 11 5 31 9 45 7 31 13 64 20 114 4 21
8 47 10 58 3 11 7 46 10 77 4 31 8 63 10 71 11 43 19 184 20 335 0 182 -6 260
-31 365 -3 14 -7 32 -9 41 -17 84 -136 349 -157 349 -4 0 -8 5 -8 11 0 18
-113 151 -178 208 -67 60 -199 151 -218 151 -7 0 -14 3 -16 8 -4 9 -104 54
-178 80 -48 17 -121 35 -200 49 -60 11 -301 9 -370 -3z"/>
</g>
</svg>
